<?xml version="1.0" encoding="utf-8"?>
<!-- Generator: Adobe Illustrator 21.0.0, SVG Export Plug-In . SVG Version: 6.00 Build 0)  -->
<svg version="1.1" id="Layer_1" xmlns="http://www.w3.org/2000/svg" xmlns:xlink="http://www.w3.org/1999/xlink" x="0px" y="0px"
	 viewBox="0 0 1366 768" style="enable-background:new 0 0 1366 768;" xml:space="preserve">
<style type="text/css">
	.st0{fill:url(#SVGID_1_);}
</style>
<g>
	
		<linearGradient id="SVGID_1_" gradientUnits="userSpaceOnUse" x1="665.6" y1="743.1316" x2="665.6" y2="10.2368" gradientTransform="matrix(1 0 0 -1 0 768)">
		<stop  offset="0" style="stop-color:#FFFFFF"/>
		<stop  offset="0.3331" style="stop-color:#FDFDFD"/>
		<stop  offset="0.4917" style="stop-color:#F5F5F5"/>
		<stop  offset="0.6134" style="stop-color:#E8E8E8"/>
		<stop  offset="0.7162" style="stop-color:#D6D6D6"/>
		<stop  offset="0.8072" style="stop-color:#BEBEBE"/>
		<stop  offset="0.8898" style="stop-color:#A1A1A1"/>
		<stop  offset="0.9645" style="stop-color:#7E7E7E"/>
		<stop  offset="1" style="stop-color:#6B6B6B"/>
	</linearGradient>
	<path class="st0" d="M665.6,86.5c-170.1,0-308,133.2-308,297.5s137.9,297.5,308,297.5s308-133.2,308-297.5S835.7,86.5,665.6,86.5z
		 M828.8,490.9c-13.5,16.2-52.1,46.8-52.1,46.8s-26,16.2-65.6,0c-49.7-20.4-88.1-45.3-150.4-107.9c-20-20.1-35.5-37.3-45.2-48.3
		c-3.5-5.1-29.5-44.8-14.6-94.1c13.9-45.9,52.6-64.9,58.8-67.8c0,0,21.2-9.6,30.9,0s71.4,72.6,71.4,72.6s13.5,17.2,0,32.5
		s-48.2,46.8-48.2,46.8l-40.5,8.6l94.7,91.7v-32.5l51.9-55.4c0,0,24.1-11.5,36.6,0s72.3,71.6,72.3,71.6S842.3,474.7,828.8,490.9z"/>
</g>
</svg>
