<?xml version="1.0" encoding="utf-8"?>
<!-- Generator: Adobe Illustrator 21.0.0, SVG Export Plug-In . SVG Version: 6.00 Build 0)  -->
<svg version="1.1" xmlns="http://www.w3.org/2000/svg" xmlns:xlink="http://www.w3.org/1999/xlink" x="0px" y="0px"
	 viewBox="0 0 1696.8 940.3" style="enable-background:new 0 0 1696.8 940.3;" xml:space="preserve">
<g id="Layer_2_xA0_Image_1_">
	
		<image style="overflow:visible;" width="2816" height="1959" id="Layer_2_xA0_Image" xlink:href="EB52C8F8.png"  transform="matrix(0.48 0 0 0.48 168.16 -4)">
	</image>
</g>
<g id="Layer_1_2_">
	<g id="_x3C_Path_x3E__xA0_Image_1_">
		
			<image style="overflow:visible;" width="233" height="305" id="_x3C_Path_x3E__xA0_Image" xlink:href="EB52C8F9.png"  transform="matrix(0.48 0 0 0.48 463.3601 332.48)">
		</image>
	</g>
	<g id="Layer_4_xA0_Image_1_">
		
			<image style="overflow:visible;" width="57" height="57" id="Layer_4_xA0_Image" xlink:href="EB52C8FF.png"  transform="matrix(0.48 0 0 0.48 551.2001 446.24)">
		</image>
	</g>
	<g id="Layer_3_xA0_Image_3_">
		
			<image style="overflow:visible;" width="1164" height="353" id="Layer_3_xA0_Image_2_" xlink:href="EB52C8FA.png"  transform="matrix(0.48 0 0 0.48 584.3201 336.8)">
		</image>
	</g>
	<g id="Layer_5_xA0_Image_3_">
		
			<image style="overflow:visible;" width="276" height="374" id="Layer_5_xA0_Image_2_" xlink:href="EB52C8FB.png"  transform="matrix(0.48 0 0 0.48 650.0801 316.64)">
		</image>
	</g>
	<g id="Layer_6_xA0_Image_3_">
		
			<image style="overflow:visible;" width="247" height="237" id="Layer_6_xA0_Image_2_" xlink:href="EB52C8F6.png"  transform="matrix(0.48 0 0 0.48 736.48 359.36)">
		</image>
	</g>
	<g id="Layer_7_xA0_Image_1_">
		
			<image style="overflow:visible;" width="191" height="402" id="Layer_7_xA0_Image" xlink:href="EB52C8F7.png"  transform="matrix(0.48 0 0 0.48 969.7601 296.96)">
		</image>
	</g>
	<g id="Layer_8_xA0_Image_1_">
		
			<image style="overflow:visible;" width="212" height="500" id="Layer_8_xA0_Image" xlink:href="EB52C908.png"  transform="matrix(0.48 0 0 0.48 804.6401 318.08)">
		</image>
	</g>
	<g id="Layer_9_xA0_Image_3_">
		
			<image style="overflow:visible;" width="259" height="346" id="Layer_9_xA0_Image_2_" xlink:href="EB52C90B.png"  transform="matrix(0.48 0 0 0.48 1124.3201 341.12)">
		</image>
	</g>
	<g id="Layer_10_xA0_Image_1_">
		
			<image style="overflow:visible;" width="3161" height="742" id="Layer_10_xA0_Image" xlink:href="2F70C27.png"  transform="matrix(0.48 0 0 0.48 -176.96 149.6)">
		</image>
	</g>
	<g id="Layer_13_xA0_Image_1_">
		
			<image style="overflow:visible;" width="25" height="38" id="Layer_13_xA0_Image" xlink:href="2F70C25.png"  transform="matrix(0.48 0 0 0.48 916.4801 530.24)">
		</image>
	</g>
</g>
<g id="Layer_3_3_">
	<g id="Layer_3_xA0_Image_1_">
		
			<image style="overflow:visible;" width="1440" height="538" id="Layer_3_xA0_Image" xlink:href="2F70C23.png"  transform="matrix(0.48 0 0 0.48 694.7201 426.56)">
		</image>
	</g>
</g>
<g id="Layer_5_xA0_Image_1_">
	
		<image style="overflow:visible;" width="240" height="346" id="Layer_5_xA0_Image" xlink:href="2F70C3D.png"  transform="matrix(0.48 0 0 0.48 803.2001 519.2)">
	</image>
</g>
<g id="Layer_6_xA0_Image_1_">
	
		<image style="overflow:visible;" width="420" height="347" id="Layer_6_xA0_Image" xlink:href="2F70C3F.png"  transform="matrix(0.48 0 0 0.48 917.4401 516.8)">
	</image>
</g>
<g id="Layer_9_xA0_Image_1_">
	
		<image style="overflow:visible;" width="2307" height="1057" id="Layer_9_xA0_Image" xlink:href="2F70C22.png"  transform="matrix(0.48 0 0 0.48 360.6401 255.68)">
	</image>
</g>
</svg>
